<svg width="48" height="48" viewBox="0 0 48 48" fill="none" xmlns="http://www.w3.org/2000/svg">
<rect width="48" height="48" rx="4.28571" fill="#F4F3FF"/>
<path d="M15.1055 29.7886H18.2127C18.2127 31.5081 19.5997 32.8943 21.32 32.8943C23.0404 32.8943 24.4273 31.5081 24.4273 29.7886H27.5346C27.5346 33.2142 24.7607 35.9999 21.32 35.9999C17.8794 35.9866 15.1055 33.2142 15.1055 29.7886Z" fill="#009DA6"/>
<path d="M27.5156 23.5718V29.7832H24.4084V23.5718H27.5156Z" fill="#009DA6"/>
<path d="M18.2021 23.5808V29.7921H15.0949L15.0949 23.5808H18.2021Z" fill="#009DA6"/>
<path d="M21.3061 12.834L19.7591 15.5265C18.2788 14.6734 16.3718 15.1799 15.5183 16.6595C14.6648 18.139 15.1716 20.045 16.6519 20.8981L15.1049 23.5906C12.131 21.8712 11.1174 18.0856 12.8378 15.1132C14.5448 12.1408 18.3455 11.1145 21.3061 12.834Z" fill="#009DA6"/>
<path d="M20.4541 26.7035L15.0723 23.5979L16.6259 20.9084L22.0077 24.0141L20.4541 26.7035Z" fill="#009DA6"/>
<path d="M25.1093 18.6387L19.7275 15.533L21.2812 12.8435L26.663 15.9492L25.1093 18.6387Z" fill="#009DA6"/>
<path d="M26.6943 15.9396L28.2413 18.6321C29.7216 17.7791 31.6286 18.2856 32.4821 19.7651C33.3356 21.2446 32.8289 23.1507 31.3486 24.0037L32.8956 26.6962C35.8695 24.9768 36.883 21.1912 35.1627 18.2188C33.4557 15.2331 29.6549 14.2202 26.6943 15.9396Z" fill="#009DA6"/>
<path d="M27.5019 29.8158L25.9482 27.1263L31.403 23.9786L32.9566 26.6681L27.5019 29.8158Z" fill="#009DA6"/>
<path d="M22.8378 21.7619L21.2842 19.0723L26.8881 15.8385L28.4417 18.528L22.8378 21.7619Z" fill="#009DA6"/>
</svg>
